<svg width="32" height="32" viewBox="0 0 32 32" fill="none" xmlns="http://www.w3.org/2000/svg">
<path d="M16 32C23.0111 32 26.9083 32 29.4542 29.4542C32 26.9083 32 23.0111 32 16C32 8.98889 32 5.09167 29.4542 2.54583C26.9083 0 23.0111 0 16 0C8.98889 0 5.09167 0 2.54583 2.54583C0 5.09167 0 8.98889 0 16C0 23.0111 0 26.9083 2.54583 29.4542C5.09167 32 8.98889 32 16 32Z" fill="#232323"/>
<path d="M23.4289 10.1861C24.6248 10.1861 25.5942 9.21667 25.5942 8.02082C25.5942 6.82497 24.6248 5.85555 23.4289 5.85555C22.2331 5.85555 21.2637 6.82497 21.2637 8.02082C21.2637 9.21667 22.2331 10.1861 23.4289 10.1861Z" fill="white"/>
<path d="M9.54004 8.02083H16.197C19.5942 8.02083 21.965 10.3694 21.965 13.3778C21.965 16.3861 19.5942 18.7125 16.197 18.7125H13.2331V23.9792H9.54004V8.02083ZM15.8095 15.7944C17.2234 15.7944 18.2484 14.7681 18.2484 13.3778C18.2484 11.9875 17.222 10.9389 15.8095 10.9389H13.2331V15.7944H15.8095Z" fill="white"/>
</svg>
