<svg width="1024" height="297" viewBox="0 0 1024 297" fill="none" xmlns="http://www.w3.org/2000/svg">
<path d="M984.6 78.7991C1006.36 78.7991 1024 61.1593 1024 39.3995C1024 17.6398 1006.36 0 984.6 0C962.84 0 945.201 17.6398 945.201 39.3995C945.201 61.1593 962.84 78.7991 984.6 78.7991Z" fill="#232323"/>
<path d="M0 0H119.219C180.054 0 222.515 42.0534 222.515 95.9471C222.515 149.841 180.054 191.486 119.219 191.486H66.1422V285.8H0V0ZM112.278 139.225C137.592 139.225 155.965 120.852 155.965 95.9471C155.965 71.0416 137.592 52.2605 112.278 52.2605H66.1422V139.225H112.278Z" fill="#232323"/>
<path d="M339.693 239.664C362.149 239.664 375.622 222.516 375.622 193.119V78.7992H438.498V285.8H375.622L376.438 260.078C364.19 279.267 343.776 290.291 317.237 290.291C273.551 290.291 242.929 257.22 242.929 209.859V78.7992H305.805V196.385C305.805 223.74 318.462 239.664 339.693 239.664Z" fill="#232323"/>
<path d="M541.999 222.924C530.852 222.924 521.789 213.86 521.789 202.714V0H458.913V202.714C458.913 248.523 496.189 285.8 541.999 285.8H556.921V222.924H541.999Z" fill="#232323"/>
<path d="M772.292 182.504C772.292 117.995 817.612 71.0417 880.488 71.0417C951.53 71.0417 993.583 131.06 982.968 202.51H835.985C838.026 226.598 856.399 244.563 881.713 244.563C902.127 244.563 919.683 232.723 925.808 215.983L979.293 223.74C971.536 262.119 933.157 293.557 880.896 293.557C817.612 293.557 772.292 246.604 772.292 182.504ZM922.133 155.557C922.133 135.143 904.985 117.995 880.488 117.995C855.991 117.995 839.66 133.101 836.393 155.557H922.133Z" fill="#232323"/>
<path d="M756.981 285.8V229.722H656.849L756.981 141.675V78.7992H577.335V134.877H677.549L577.335 222.924V285.8H756.981Z" fill="#232323"/>
</svg>
