<svg width="280" height="280" viewBox="0 0 280 280" fill="none" xmlns="http://www.w3.org/2000/svg">
<path d="M140 280C201.347 280 235.448 280 257.724 257.724C280 235.448 280 201.347 280 140C280 78.6528 280 44.5521 257.724 22.276C235.448 0 201.347 0 140 0C78.6528 0 44.5521 0 22.276 22.276C0 44.5521 0 78.6528 0 140C0 201.347 0 235.448 22.276 257.724C44.5521 280 78.6528 280 140 280Z" fill="url(#paint0_linear_422_21)"/>
<path d="M187.406 230C179.585 230 171.985 225.961 167.793 218.743L137.031 165.737C130.788 154.979 134.498 141.223 145.315 135.015C156.132 128.806 169.964 132.495 176.207 143.252L206.969 196.259C213.212 207.016 209.502 220.772 198.685 226.981C195.127 229.02 191.236 230 187.406 230Z" fill="url(#paint1_linear_422_21)"/>
<path d="M204 113.5C204 78.8764 176.174 50.6519 141.748 50.0301C141.367 50.01 140.977 50 140.586 50H92.537C80.0866 50 70 60.1002 70 72.5675C70 85.0348 80.0866 95.135 92.537 95.135H140.586C150.703 95.135 158.926 103.37 158.926 113.5C158.926 123.63 150.703 131.865 140.586 131.865H121.074C108.623 131.865 98.5369 141.965 98.5369 154.432C98.5369 166.9 108.623 177 121.074 177H140.586C140.977 177 141.367 177 141.748 176.97C176.174 176.348 204 148.124 204 113.5Z" fill="#F9F9F9"/>
<defs>
<linearGradient id="paint0_linear_422_21" x1="-0.607915" y1="-0.607609" x2="280.607" y2="280.608" gradientUnits="userSpaceOnUse">
<stop stop-color="#E9ABDB"/>
<stop offset="1" stop-color="#9E3CEC"/>
</linearGradient>
<linearGradient id="paint1_linear_422_21" x1="149.678" y1="141.743" x2="205.414" y2="240.801" gradientUnits="userSpaceOnUse">
<stop offset="0.151042" stop-color="#989898"/>
<stop offset="0.49" stop-color="#F9F9F9"/>
</linearGradient>
</defs>
</svg>
