<svg width="279" height="279" viewBox="0 0 279 279" fill="none" xmlns="http://www.w3.org/2000/svg">
<path d="M139.395 278.79C200.477 278.79 234.43 278.79 256.61 256.61C278.79 234.43 278.79 200.477 278.79 139.395C278.79 78.3129 278.79 44.3596 256.61 22.1798C234.43 0 200.477 0 139.395 0C78.3129 0 44.3596 0 22.1798 22.1798C0 44.3596 0 78.3129 0 139.395C0 200.477 0 234.43 22.1798 256.61C44.3596 278.79 78.3129 278.79 139.395 278.79Z" fill="url(#paint0_linear_422_20)"/>
<path d="M178.295 161.885H100.415C87.985 161.885 77.915 151.815 77.915 139.385C77.915 126.955 87.985 116.885 100.415 116.885H178.295C190.725 116.885 200.795 126.955 200.795 139.385C200.795 151.815 190.725 161.885 178.295 161.885Z" fill="url(#paint1_linear_422_20)"/>
<path d="M100.395 161.905C96.5752 161.905 92.7052 160.935 89.1652 158.885C78.4052 152.675 74.7152 138.915 80.9252 128.145L119.865 60.695C126.075 49.935 139.835 46.245 150.605 52.455C161.365 58.665 165.055 72.425 158.845 83.195L119.905 150.645C115.735 157.865 108.175 161.895 100.395 161.895V161.905Z" fill="#F9F9F9"/>
<path d="M139.335 229.365C135.515 229.365 131.645 228.395 128.105 226.345C117.345 220.135 113.655 206.375 119.865 195.605L158.805 128.155C165.015 117.395 178.775 113.705 189.545 119.915C200.305 126.125 203.995 139.885 197.785 150.655L158.845 218.105C154.675 225.325 147.115 229.355 139.335 229.355V229.365Z" fill="#F9F9F9"/>
<defs>
<linearGradient id="paint0_linear_422_20" x1="0.39453" y1="0.395021" x2="278.395" y2="278.395" gradientUnits="userSpaceOnUse">
<stop stop-color="#B4E6FF"/>
<stop offset="1" stop-color="#14C9E1"/>
</linearGradient>
<linearGradient id="paint1_linear_422_20" x1="103.895" y1="110.395" x2="180.895" y2="170.395" gradientUnits="userSpaceOnUse">
<stop offset="0.17488" stop-color="#989898"/>
<stop offset="0.425901" stop-color="#F9F9F9"/>
<stop offset="0.529098" stop-color="#F9F9F9"/>
<stop offset="0.86054" stop-color="#9B9B9B"/>
</linearGradient>
</defs>
</svg>
